<svg width="19" height="19" viewBox="0 0 19 19" fill="none" xmlns="http://www.w3.org/2000/svg">
<path d="M8.07902 10.9L5.91285 8.75C5.72814 8.56667 5.49305 8.475 5.20759 8.475C4.92213 8.475 4.68704 8.56667 4.50233 8.75C4.31761 8.93333 4.22526 9.16667 4.22526 9.45C4.22526 9.73333 4.31761 9.96667 4.50233 10.15L7.37375 13C7.57526 13.2 7.81035 13.3 8.07902 13.3C8.34769 13.3 8.58278 13.2 8.78428 13L14.4768 7.35C14.6615 7.16667 14.7538 6.93333 14.7538 6.65C14.7538 6.36667 14.6615 6.13333 14.4768 5.95C14.2921 5.76667 14.057 5.675 13.7715 5.675C13.486 5.675 13.2509 5.76667 13.0662 5.95L8.07902 10.9ZM2.43691 18.5C1.88278 18.5 1.40857 18.3043 1.0143 17.913C0.62002 17.5217 0.422547 17.0507 0.421875 16.5V2.5C0.421875 1.95 0.619349 1.47933 1.0143 1.088C1.40924 0.696667 1.88345 0.500667 2.43691 0.5H16.5422C17.0963 0.5 17.5709 0.696 17.9658 1.088C18.3607 1.48 18.5579 1.95067 18.5572 2.5V16.5C18.5572 17.05 18.3601 17.521 17.9658 17.913C17.5715 18.305 17.097 18.5007 16.5422 18.5H2.43691ZM2.43691 16.5H16.5422V2.5H2.43691V16.5Z" fill="#121212"/>
</svg>
