<svg width="20" height="21" viewBox="0 0 20 21" fill="none" xmlns="http://www.w3.org/2000/svg">
<path d="M0.645061 2.67828L6.29891 2.67828C6.5954 2.67828 6.87722 2.74738 7.14435 2.88556C7.41075 3.02375 7.62358 3.22006 7.78283 3.47449L8.64478 4.78615C7.35754 4.9141 6.24351 5.08007 5.30267 5.28405C4.36183 5.48804 3.29402 5.81925 2.09926 6.27767L0.645061 2.67828ZM2.61334 7.12103C3.73986 6.6787 4.89353 6.33726 6.07435 6.09671C7.25517 5.85617 8.45764 5.73553 9.68176 5.7348C11.6229 5.7348 13.4059 6.06454 15.0307 6.72403C16.6555 7.38205 18.0969 8.40235 19.3547 9.78493C18.0969 11.1668 16.6555 12.1871 15.0307 12.8458C13.4059 13.5046 11.6229 13.834 9.68176 13.834C8.46278 13.834 7.26361 13.7137 6.08425 13.4731C4.9049 13.2333 3.74793 12.8919 2.61334 12.4488L2.61334 7.12103ZM9.55737 9.78493C9.55737 10.2477 9.71662 10.6374 10.0351 10.954C10.3529 11.2713 10.7441 11.43 11.2086 11.43C11.6732 11.43 12.0643 11.2713 12.3821 10.954C12.6999 10.6367 12.8591 10.247 12.8599 9.78493C12.8606 9.32285 12.7013 8.93316 12.3821 8.61584C12.0643 8.29853 11.6732 8.13987 11.2086 8.13987C10.7441 8.13987 10.3529 8.29853 10.0351 8.61584C9.71735 8.93316 9.5581 9.32285 9.55737 9.78493ZM0.645061 16.8718L2.07834 13.2714C3.27237 13.7298 4.34348 14.061 5.29166 14.265C6.23984 14.469 7.35754 14.6349 8.64478 14.7629L7.76192 16.0745C7.60266 16.329 7.38984 16.5253 7.12344 16.6635C6.8563 16.8024 6.57449 16.8718 6.278 16.8718L0.645061 16.8718Z" fill="#242424"/>
</svg>
