<svg width="20" height="21" viewBox="0 0 20 21" fill="none" xmlns="http://www.w3.org/2000/svg">
<path fill-rule="evenodd" clip-rule="evenodd" d="M8.63597 2.77851C9.14242 2.10467 10.1587 1.86108 10.9524 2.36937C11.7771 2.89751 13.2033 3.91827 14.4308 5.35123C15.6577 6.78347 16.7321 8.68291 16.7321 10.9475C16.7321 14.981 13.4804 18.2116 9.36602 18.2116C5.25164 18.2116 2 14.981 2 10.9475C2 9.30472 2.75747 7.20574 4.23367 5.52997C4.88043 4.79577 5.99642 4.83955 6.64845 5.42297L8.63597 2.77851ZM9.36602 16.5973C10.6224 16.5973 11.6408 15.5146 11.6408 14.1789C11.6408 12.7456 10.4439 11.6914 9.78649 11.2205C9.53549 11.0407 9.19655 11.0407 8.94556 11.2205C8.28815 11.6914 7.09122 12.7456 7.09122 14.1789C7.09122 15.5146 8.10968 16.5973 9.36602 16.5973Z" fill="#121212"/>
</svg>
