<svg width="21" height="21" viewBox="0 0 21 21" fill="none" xmlns="http://www.w3.org/2000/svg">
<path d="M11.1856 5.91166C11.1856 3.78219 9.61693 2.05591 7.68193 2.05591C5.74689 2.05591 4.17822 3.78219 4.17822 5.91166C4.17822 8.04114 5.74689 9.76742 7.68193 9.76742C9.61693 9.76742 11.1856 8.04114 11.1856 5.91166Z" fill="#121212"/>
<path d="M14.3052 5.91163C14.3052 4.72859 13.4337 3.76955 12.3587 3.76955C11.9286 3.76955 11.5801 3.38593 11.5801 2.91271C11.5801 2.4395 11.9286 2.05588 12.3587 2.05588C14.2937 2.05588 15.8624 3.78216 15.8624 5.91163C15.8624 8.04111 14.2937 9.76739 12.3587 9.76739C11.9286 9.76739 11.5801 9.38377 11.5801 8.91055C11.5801 8.43734 11.9286 8.05372 12.3587 8.05372C13.4337 8.05372 14.3052 7.09468 14.3052 5.91163Z" fill="#121212"/>
<path d="M14.0122 17.5477C13.6039 18.0451 12.9951 18.3357 12.3557 18.3357H3.01253C2.37317 18.3357 1.76441 18.0451 1.35607 17.5477C0.934312 17.034 0.731592 16.2953 0.965753 15.5232C1.84232 12.633 4.56469 10.6242 7.68413 10.6242C10.8036 10.6242 13.5259 12.633 14.4025 15.5232C14.6367 16.2953 14.4339 17.034 14.0122 17.5477Z" fill="#121212"/>
<path d="M17.0297 18.3357C17.6689 18.3357 18.2778 18.0452 18.6861 17.5478C19.1079 17.0341 19.3106 16.2954 19.0765 15.5234C18.4553 13.4752 16.9018 11.8687 14.9538 11.1094C14.5485 10.9514 14.1035 11.1849 13.9599 11.631C13.8164 12.077 14.0286 12.5667 14.4339 12.7247C15.9908 13.3315 17.1495 14.5825 17.5994 16.0658C17.6375 16.1915 17.616 16.295 17.5307 16.399C17.4318 16.5193 17.2504 16.622 17.0297 16.622H16.6404C16.2103 16.622 15.8618 17.0057 15.8618 17.4789C15.8618 17.9521 16.2103 18.3357 16.6404 18.3357H17.0297Z" fill="#121212"/>
</svg>
