<svg width="89" height="13" viewBox="0 0 89 13" fill="none" xmlns="http://www.w3.org/2000/svg">
<path d="M5.86616 0.649407C6.20831 -0.04376 7.19674 -0.04376 7.53887 0.649407L8.88745 3.38146C9.02323 3.65647 9.28554 3.84717 9.589 3.89153L12.6062 4.33255C13.371 4.44432 13.6758 5.38436 13.1222 5.92362L10.9403 8.04871C10.7203 8.26299 10.6199 8.5718 10.6718 8.8745L11.1865 11.8756C11.3172 12.6376 10.5173 13.2186 9.83307 12.8588L7.13667 11.4408C6.86489 11.2979 6.54018 11.2979 6.2684 11.4408L3.57198 12.8588C2.88771 13.2186 2.08786 12.6376 2.21855 11.8756L2.73327 8.8745C2.78519 8.5718 2.68477 8.26299 2.46477 8.04871L0.282947 5.92362C-0.270712 5.38436 0.0340863 4.44432 0.798841 4.33255L3.8161 3.89153C4.11957 3.84717 4.38184 3.65647 4.51759 3.38146L5.86616 0.649407Z" fill="#E8CD00"/>
<path d="M24.5236 0.649407C24.8657 -0.04376 25.8542 -0.04376 26.1964 0.649407L27.5449 3.38146C27.6806 3.65647 27.9429 3.84717 28.2464 3.89153L31.2636 4.33255C32.0284 4.44432 32.3332 5.38436 31.7795 5.92362L29.5977 8.04871C29.3777 8.26299 29.2773 8.5718 29.3292 8.8745L29.844 11.8756C29.9746 12.6376 29.1748 13.2186 28.4906 12.8588L25.7941 11.4408C25.5223 11.2979 25.1976 11.2979 24.9259 11.4408L22.2294 12.8588C21.5451 13.2186 20.7453 12.6376 20.8759 11.8756L21.3907 8.8745C21.4427 8.5718 21.3422 8.26299 21.1222 8.04871L18.9404 5.92362C18.3868 5.38436 18.6916 4.44432 19.4563 4.33255L22.4736 3.89153C22.777 3.84717 23.0393 3.65647 23.175 3.38146L24.5236 0.649407Z" fill="#E8CD00"/>
<path d="M43.1662 0.649407C43.5084 -0.04376 44.4968 -0.04376 44.8389 0.649407L46.1875 3.38146C46.3233 3.65647 46.5856 3.84717 46.8891 3.89153L49.9063 4.33255C50.6711 4.44432 50.9759 5.38436 50.4222 5.92362L48.2404 8.04871C48.0204 8.26299 47.92 8.5718 47.9719 8.8745L48.4866 11.8756C48.6173 12.6376 47.8174 13.2186 47.1331 12.8588L44.4367 11.4408C44.165 11.2979 43.8402 11.2979 43.5685 11.4408L40.8721 12.8588C40.1878 13.2186 39.3879 12.6376 39.5186 11.8756L40.0333 8.8745C40.0852 8.5718 39.9848 8.26299 39.7648 8.04871L37.583 5.92362C37.0293 5.38436 37.3341 4.44432 38.0989 4.33255L41.1161 3.89153C41.4196 3.84717 41.6819 3.65647 41.8177 3.38146L43.1662 0.649407Z" fill="#E8CD00"/>
<path d="M61.8236 0.649407C62.1658 -0.04376 63.1543 -0.04376 63.4964 0.649407L64.845 3.38146C64.9807 3.65647 65.243 3.84717 65.5464 3.89153L68.5637 4.33255C69.3284 4.44432 69.6332 5.38436 69.0796 5.92362L66.8978 8.04871C66.6778 8.26299 66.5773 8.5718 66.6293 8.8745L67.144 11.8756C67.2747 12.6376 66.4749 13.2186 65.7906 12.8588L63.0941 11.4408C62.8224 11.2979 62.4977 11.2979 62.2259 11.4408L59.5294 12.8588C58.8452 13.2186 58.0454 12.6376 58.176 11.8756L58.6908 8.8745C58.7427 8.5718 58.6423 8.26299 58.4223 8.04871L56.2405 5.92362C55.6868 5.38436 55.9916 4.44432 56.7564 4.33255L59.7736 3.89153C60.0771 3.84717 60.3394 3.65647 60.4751 3.38146L61.8236 0.649407Z" fill="#E8CD00"/>
<path d="M80.4812 0.649407C80.8233 -0.04376 81.8117 -0.04376 82.1539 0.649407L83.5025 3.38146C83.6382 3.65647 83.9005 3.84717 84.204 3.89153L87.2212 4.33255C87.986 4.44432 88.2908 5.38436 87.7371 5.92362L85.5553 8.04871C85.3353 8.26299 85.2349 8.5718 85.2868 8.8745L85.8015 11.8756C85.9322 12.6376 85.1323 13.2186 84.448 12.8588L81.7517 11.4408C81.4799 11.2979 81.1551 11.2979 80.8834 11.4408L78.187 12.8588C77.5027 13.2186 76.7029 12.6376 76.8335 11.8756L77.3483 8.8745C77.4002 8.5718 77.2998 8.26299 77.0798 8.04871L74.898 5.92362C74.3443 5.38436 74.6491 4.44432 75.4138 4.33255L78.4312 3.89153C78.7346 3.84717 78.9968 3.65647 79.1326 3.38146L80.4812 0.649407Z" fill="#E8CD00"/>
</svg>
