<svg width="219" height="50" viewBox="0 0 219 50" fill="none" xmlns="http://www.w3.org/2000/svg">
<path d="M83.6511 9.28516H70.8298V21.7674H79.1766V16.4626H83.2174C88.4595 16.4626 89.7915 17.5255 89.7915 23.5149C89.7915 29.5043 88.4698 30.5639 83.2209 30.5639H79.1766V25.2591H70.8298V37.7413H83.6511C93.4263 37.7413 98.7957 32.5187 98.7957 23.5149C98.7957 14.5111 93.44 9.28516 83.6511 9.28516Z" fill="#121212"/>
<path d="M100.187 32.1796C100.187 28.7801 102.497 26.7431 107.34 25.9763L114.626 24.8739V24.1071C114.626 22.7479 114.137 22.2806 111.694 22.2806C109.25 22.2806 108.675 22.7085 108.675 24.0248V24.7027H100.721V24.1926C100.721 18.7989 105.161 15.4883 112.003 15.4883C119.066 15.4883 122.574 18.5027 122.574 24.6599V37.7412H114.757V35.1085H114.358C113.38 36.4676 111.38 38.1657 107.13 38.1657C103.206 38.1657 100.187 36.1714 100.187 32.1796ZM109.869 32.3902C113.112 32.3902 114.492 31.5839 114.623 29.5436L109.071 30.4354C108.183 30.5638 107.828 30.86 107.828 31.4556C107.828 32.2191 108.317 32.3869 109.869 32.3869V32.3902Z" fill="#121212"/>
<path d="M125.049 44.5377V15.9071H132.824V18.8688H133.089C134.332 16.8318 136.731 15.4727 140.152 15.4727C146.637 15.4727 149.446 19.9318 149.446 26.8097C149.446 33.6876 146.737 38.1501 140.252 38.1501C136.965 38.1501 134.745 36.8337 133.768 34.8394H133.365V44.5212L125.049 44.5377ZM137.22 31.2458C140.731 31.2458 141.116 29.755 141.116 26.8262C141.116 23.8973 140.672 22.4526 137.206 22.4526C134.587 22.4526 133.341 23.0482 133.341 26.0726V27.6456C133.355 30.6074 134.6 31.2458 137.22 31.2458Z" fill="#121212"/>
<path d="M151.209 27.0392C151.209 19.8191 155.473 15.4883 163.07 15.4883C170.446 15.4883 174.132 19.6052 174.132 25.4267C174.109 26.5089 173.994 27.5874 173.788 28.6518H158.988C159.122 30.9883 159.876 31.5412 162.942 31.5412C164.939 31.5412 165.606 31.1594 165.606 30.182V30.0833H173.867V30.5934C173.867 35.0097 169.603 38.1624 162.808 38.1624C155.387 38.1657 151.209 34.006 151.209 27.0392ZM158.984 24.321H166.181C166.136 22.9191 165.379 21.7738 162.626 21.7738C160.044 21.7738 159.118 22.5373 158.984 24.321Z" fill="#121212"/>
<path d="M176 37.7412V15.9128H183.771V19.2234H184.171C185.461 17.1008 187.637 15.4883 190.659 15.4883C195.054 15.4883 196.61 18.2065 196.61 22.4946V26.4436H188.27V24.2782C188.27 22.6657 187.957 22.1984 186.405 22.1984C185.028 22.1984 184.315 22.3662 184.315 23.9392V37.7412H176Z" fill="#121212"/>
<path d="M210.777 30.778L207.759 31.107L207.625 30.597L210.777 28.7672L211.6 28.1091H200.872L196.92 31.6698V37.7414H218.997V30.778H210.777ZM207.979 22.4521L208.113 22.9621L204.692 24.6602L204.331 24.9893H215.4L218.329 22.5837V15.9131H197.584V22.8766H204.692L207.979 22.4521Z" fill="#121212"/>
<path d="M0 0.464844V49.9267H50.1905V0.464844H0ZM10.9592 41.219V32.0046L23.1988 41.219H10.9592ZM27.8523 40.959L10.9592 28.2398V24.9193L31.1015 40.0902C30.0543 40.491 28.9649 40.7823 27.8523 40.959ZM36.2678 36.7237C35.5925 37.3984 34.8514 38.0099 34.0547 38.5501L10.9592 21.1579V9.17249H23.925C29.556 9.17249 33.7713 10.7697 36.5707 13.964C39.3311 17.0475 40.8237 20.986 40.7699 25.0444C40.7699 29.8315 39.2692 33.7246 36.2678 36.7237Z" fill="#121212"/>
</svg>
