<svg width="232" height="150" viewBox="0 0 232 150" fill="none" xmlns="http://www.w3.org/2000/svg">
<circle cx="15.3268" cy="15.5446" r="14.5612" fill="white" stroke="#BCBCBC" stroke-width="0.832069"/>
<path d="M10.3341 23.866H20.319C22.1546 23.866 23.6472 22.3729 23.6472 20.5377V12.217C23.6472 10.3818 22.1546 8.88875 20.319 8.88875H19.4869V8.05668C19.4869 7.59721 19.1147 7.22461 18.6548 7.22461C18.1949 7.22461 17.8228 7.59721 17.8228 8.05668V8.88875H12.8303V8.05668C12.8303 7.59721 12.4577 7.22461 11.9983 7.22461C11.5388 7.22461 11.1662 7.59721 11.1662 8.05668V8.88875H10.3341C8.49892 8.88875 7.00586 10.3818 7.00586 12.217V20.5377C7.00586 22.3729 8.49892 23.866 10.3341 23.866ZM8.67 14.7132H21.9831V20.5377C21.9831 21.4555 21.2363 22.2018 20.319 22.2018H10.3341C9.41636 22.2018 8.67 21.4555 8.67 20.5377V14.7132Z" fill="#BCBCBC"/>
<g clip-path="url(#clip0_236_3604)">
<path d="M41.765 18.2646H40.8893V10.8025H37.485V10.0007H45.1569V10.8025H41.765V18.2646ZM47.7169 18.388C46.5205 18.388 45.7065 17.8206 45.7065 16.8339C45.7065 15.8348 46.5329 15.4031 47.6676 15.2798L50.5661 14.9591V14.4904C50.5661 13.3063 50.0481 12.8376 48.716 12.8376C47.4086 12.8376 46.7179 13.3063 46.7179 14.3794V14.4287H45.8421V14.3794C45.8421 13.0966 46.9029 12.0482 48.7777 12.0482C50.6278 12.0482 51.4172 13.109 51.4172 14.4534V18.2646H50.6278V16.6242H50.5661C50.2084 17.7466 49.1354 18.388 47.7169 18.388ZM46.5822 16.7722C46.5822 17.3889 46.9892 17.7096 47.9143 17.7096C49.3944 17.7096 50.5661 17.0559 50.5661 15.5881V15.5388L47.9389 15.8348C47.0262 15.9212 46.5822 16.1432 46.5822 16.7722ZM55.4716 17.7713C53.6585 17.7713 52.5484 16.5749 52.5484 14.9097C52.5484 13.2446 53.6955 12.0482 55.5703 12.0482C56.853 12.0482 57.8644 12.6526 58.1111 13.738H58.1728V12.1716H58.9622V17.6849C58.9622 19.6954 57.6917 20.4848 55.8539 20.4848C54.2012 20.4848 52.9431 19.6584 52.9431 18.24H53.8188C53.8188 19.3131 54.5342 19.7324 55.8909 19.7324C57.4697 19.7324 58.0864 19.2514 58.0864 17.7343V16.1432H58.0248C57.7781 17.0806 56.8777 17.7713 55.4716 17.7713ZM53.4241 14.9097C53.4241 16.4639 54.3862 16.9942 55.7059 16.9942C57.2107 16.9942 58.0864 16.2418 58.0864 14.9467V14.7371C58.0864 13.5407 57.1737 12.8253 55.7676 12.8253C54.3985 12.8253 53.4241 13.3556 53.4241 14.9097Z" fill="#BCBCBC"/>
</g>
<circle cx="15.324" cy="36.6889" r="2.20254" stroke="#BCBCBC" stroke-width="0.881014"/>
<path d="M15.324 42.8564L15.324 48.2179" stroke="#BCBCBC" stroke-width="0.881014" stroke-dasharray="2.64 2.64"/>
<circle cx="15.324" cy="54.3843" r="2.20254" stroke="#BCBCBC" stroke-width="0.881014"/>
<circle cx="15.3268" cy="75.529" r="14.5612" fill="white" stroke="#BCBCBC" stroke-width="0.832069"/>
<path d="M15.3265 67.209C10.7312 67.209 7.00586 70.9342 7.00586 75.5297C7.00586 80.1251 10.7312 83.8504 15.3265 83.8504C19.9219 83.8504 23.6472 80.125 23.6472 75.5297C23.6472 70.9343 19.9219 67.209 15.3265 67.209ZM18.6548 76.3617H15.3265C14.8667 76.3617 14.4945 75.9896 14.4945 75.5297V70.5373C14.4945 70.0774 14.8667 69.7052 15.3265 69.7052C15.7864 69.7052 16.1586 70.0774 16.1586 70.5373V74.6976H18.6548C19.1147 74.6976 19.4869 75.0698 19.4869 75.5297C19.4869 75.9896 19.1147 76.3617 18.6548 76.3617Z" fill="#BCBCBC"/>
<path d="M41.7527 78.3714C39.4585 78.3714 38.0277 77.101 38.0277 74.8315V69.9841H38.9035V74.7945C38.9035 76.6816 39.8285 77.508 41.7527 77.508C43.6768 77.508 44.6019 76.6816 44.6019 74.7945V69.9841H45.4776V74.8315C45.4776 77.101 44.0468 78.3714 41.7527 78.3714ZM47.7701 78.248H46.8944V69.9841H47.7701V74.0174H47.8318C48.0291 72.9937 48.8185 72.0316 50.3726 72.0316C52.0748 72.0316 52.9258 73.1664 52.9258 74.7081V78.248H52.0501V74.8191C52.0501 73.4254 51.3964 72.8333 50.0273 72.8333C48.3992 72.8333 47.7701 73.8694 47.7701 75.3865V78.248ZM55.2501 78.248H54.3744V72.155H55.1638V73.8201H55.2255C55.4105 72.8457 56.1012 72.0316 57.3716 72.0316C58.7777 72.0316 59.3944 73.0677 59.3944 74.2024V74.8068H58.5187V74.3381C58.5187 73.302 58.087 72.7963 57.0263 72.7963C55.7928 72.7963 55.2501 73.5734 55.2501 74.9425V78.248ZM66.1691 78.248H59.9897V77.4833L63.5172 74.1161L64.8 72.9813V72.9197L63.5172 72.9443H60.1747V72.155H65.9841V72.932L62.2221 76.4843L61.1244 77.434V77.4957L62.2221 77.471H66.1691V78.248ZM70.1251 78.3714C68.164 78.3714 66.9182 77.138 66.9182 75.2015C66.9182 73.3514 68.1516 72.0316 70.1128 72.0316C71.9012 72.0316 73.1716 73.0677 73.1716 74.8808C73.1716 75.1028 73.147 75.2878 73.11 75.4482H67.7446C67.7939 76.8173 68.497 77.6437 70.1128 77.6437C71.5435 77.6437 72.2096 77.1133 72.2096 76.2252V76.1389H73.0853V76.2252C73.0853 77.4957 71.8272 78.3714 70.1251 78.3714ZM70.1004 72.7593C68.5216 72.7593 67.8063 73.5734 67.7446 74.9055H72.3452C72.3452 74.8438 72.3452 74.7821 72.3452 74.7205C72.3452 73.4377 71.5312 72.7593 70.1004 72.7593ZM75.2089 71.3779H74.3332V69.9841H75.2089V71.3779ZM75.2089 78.248H74.3332V72.155H75.2089V78.248ZM80.4192 78.248H79.0995C77.8907 78.248 77.1137 77.7423 77.1137 76.3116V72.9073H76.0283V72.155H77.1137V70.6995H78.0017V72.155H80.4192V72.9073H78.0017V76.3609C78.0017 77.212 78.4211 77.4463 79.3091 77.4463H80.4192V78.248Z" fill="#BCBCBC"/>
<circle cx="15.324" cy="96.6733" r="2.20254" stroke="#BCBCBC" stroke-width="0.881014"/>
<path d="M15.324 102.841L15.324 107.13" stroke="#BCBCBC" stroke-width="0.881014" stroke-dasharray="2.64 2.64"/>
<circle cx="15.324" cy="113.296" r="2.20254" stroke="#BCBCBC" stroke-width="0.881014"/>
<circle cx="15.3268" cy="134.441" r="14.5612" fill="white" stroke="#BCBCBC" stroke-width="0.832069"/>
<path d="M11.5016 129.975C11.5016 129.216 11.7268 128.473 12.1488 127.842C12.5708 127.21 13.1706 126.718 13.8723 126.427C14.574 126.136 15.3462 126.06 16.0911 126.209C16.8361 126.357 17.5204 126.722 18.0574 127.26C18.5945 127.797 18.9603 128.481 19.1085 129.226C19.2566 129.971 19.1806 130.743 18.8899 131.445C18.5993 132.146 18.107 132.746 17.4755 133.168C16.844 133.59 16.1015 133.815 15.3419 133.815C14.3234 133.815 13.3466 133.411 12.6264 132.691C11.9062 131.97 11.5016 130.994 11.5016 129.975ZM21.7425 142.776H8.9414C8.43214 142.776 7.94374 142.574 7.58364 142.214C7.22354 141.854 7.02124 141.365 7.02124 140.856C7.02124 139.328 7.62815 137.863 8.70844 136.783C9.78874 135.702 11.2539 135.096 12.7817 135.096H17.9021C19.4299 135.096 20.8951 135.702 21.9754 136.783C23.0557 137.863 23.6626 139.328 23.6626 140.856C23.6626 141.365 23.4603 141.854 23.1002 142.214C22.7401 142.574 22.2517 142.776 21.7425 142.776Z" fill="#BCBCBC"/>
<path d="M38.9651 137.161H38.0894V128.897H38.9651V137.161ZM41.3139 137.161H40.4382V131.068H41.2276V132.98H41.2893C41.499 131.944 42.3623 130.945 43.8795 130.945C45.5939 130.945 46.445 132.166 46.445 133.609V137.161H45.5692V133.732C45.5692 132.474 44.9649 131.746 43.5711 131.746C42.091 131.746 41.3139 132.647 41.3139 134.213V137.161ZM49.1775 137.161H48.3017V131.82H47.3273V131.068H48.3141C48.4128 129.625 49.3872 128.897 50.9659 128.897H51.632V129.588H50.8426C49.7325 129.588 49.1281 129.958 49.1775 131.068H51.632V131.82H49.1775V137.161ZM55.4803 137.284C53.4944 137.284 52.1747 135.965 52.1747 134.115C52.1747 132.264 53.4944 130.945 55.4803 130.945C57.4784 130.945 58.7982 132.264 58.7982 134.115C58.7982 135.965 57.4784 137.284 55.4803 137.284ZM55.4803 136.495C57.1577 136.495 57.9348 135.595 57.9348 134.115C57.9348 132.647 57.1577 131.734 55.4803 131.734C53.8028 131.734 53.0381 132.647 53.0381 134.115C53.0381 135.595 53.8028 136.495 55.4803 136.495ZM60.8391 137.161H59.9633V131.068H60.7527V132.733H60.8144C60.9994 131.759 61.6901 130.945 62.9606 130.945C64.3667 130.945 64.9834 131.981 64.9834 133.116V133.72H64.1076V133.251C64.1076 132.215 63.6759 131.709 62.6152 131.709C61.3818 131.709 60.8391 132.486 60.8391 133.856V137.161ZM66.8737 137.161H65.9979V131.068H66.7873V132.906H66.8367C67.0094 131.882 67.7124 130.945 69.2295 130.945C70.5863 130.945 71.351 131.783 71.5483 132.968H71.61C71.7827 131.919 72.5104 130.945 74.0398 130.945C75.631 130.945 76.4573 132.067 76.4573 133.609V137.161H75.5816V133.732C75.5816 132.375 75.0019 131.746 73.7192 131.746C72.2514 131.746 71.6593 132.597 71.6593 134.213V137.161H70.7836V133.732C70.7836 132.375 70.2162 131.746 68.9335 131.746C67.4534 131.746 66.8737 132.597 66.8737 134.213V137.161ZM79.5763 137.284C78.3798 137.284 77.5658 136.717 77.5658 135.73C77.5658 134.731 78.3922 134.3 79.5269 134.176L82.4255 133.856V133.387C82.4255 132.203 81.9074 131.734 80.5753 131.734C79.2679 131.734 78.5772 132.203 78.5772 133.276V133.325H77.7015V133.276C77.7015 131.993 78.7622 130.945 80.637 130.945C82.4871 130.945 83.2765 132.005 83.2765 133.35V137.161H82.4871V135.521H82.4255C82.0678 136.643 80.9947 137.284 79.5763 137.284ZM78.4415 135.669C78.4415 136.285 78.8485 136.606 79.7736 136.606C81.2537 136.606 82.4255 135.952 82.4255 134.485V134.435L79.7983 134.731C78.8855 134.818 78.4415 135.04 78.4415 135.669ZM88.4533 137.161H87.1336C85.9248 137.161 85.1478 136.655 85.1478 135.225V131.82H84.0623V131.068H85.1478V129.613H86.0358V131.068H88.4533V131.82H86.0358V135.274C86.0358 136.125 86.4552 136.359 87.3432 136.359H88.4533V137.161ZM90.2894 130.291H89.4137V128.897H90.2894V130.291ZM90.2894 137.161H89.4137V131.068H90.2894V137.161ZM94.7473 137.284C92.7615 137.284 91.4418 135.965 91.4418 134.115C91.4418 132.264 92.7615 130.945 94.7473 130.945C96.7455 130.945 98.0652 132.264 98.0652 134.115C98.0652 135.965 96.7455 137.284 94.7473 137.284ZM94.7473 136.495C96.4248 136.495 97.2018 135.595 97.2018 134.115C97.2018 132.647 96.4248 131.734 94.7473 131.734C93.0699 131.734 92.3052 132.647 92.3052 134.115C92.3052 135.595 93.0699 136.495 94.7473 136.495ZM100.106 137.161H99.2304V131.068H100.02V132.98H100.081C100.291 131.944 101.155 130.945 102.672 130.945C104.386 130.945 105.237 132.166 105.237 133.609V137.161H104.361V133.732C104.361 132.474 103.757 131.746 102.363 131.746C100.883 131.746 100.106 132.647 100.106 134.213V137.161ZM111.825 137.284C109.864 137.284 108.618 136.051 108.618 134.115C108.618 132.264 109.852 130.945 111.813 130.945C113.601 130.945 114.872 131.981 114.872 133.794C114.872 134.016 114.847 134.201 114.81 134.361H109.445C109.494 135.73 110.197 136.557 111.813 136.557C113.244 136.557 113.91 136.026 113.91 135.138V135.052H114.785V135.138C114.785 136.409 113.527 137.284 111.825 137.284ZM111.801 131.672C110.222 131.672 109.506 132.486 109.445 133.819H114.045C114.045 133.757 114.045 133.695 114.045 133.634C114.045 132.351 113.231 131.672 111.801 131.672ZM116.909 130.291H116.033V128.897H116.909V130.291ZM116.909 137.161H116.033V131.068H116.909V137.161ZM119.258 137.161H118.382V131.068H119.172V132.98H119.233C119.443 131.944 120.306 130.945 121.823 130.945C123.538 130.945 124.389 132.166 124.389 133.609V137.161H123.513V133.732C123.513 132.474 122.909 131.746 121.515 131.746C120.035 131.746 119.258 132.647 119.258 134.213V137.161ZM128.429 136.668C126.616 136.668 125.506 135.471 125.506 133.806C125.506 132.141 126.653 130.945 128.528 130.945C129.81 130.945 130.822 131.549 131.068 132.634H131.13V131.068H131.919V136.581C131.919 138.592 130.649 139.381 128.811 139.381C127.158 139.381 125.9 138.555 125.9 137.136H126.776C126.776 138.21 127.491 138.629 128.848 138.629C130.427 138.629 131.044 138.148 131.044 136.631V135.04H130.982C130.735 135.977 129.835 136.668 128.429 136.668ZM126.381 133.806C126.381 135.36 127.343 135.891 128.663 135.891C130.168 135.891 131.044 135.138 131.044 133.843V133.634C131.044 132.437 130.131 131.722 128.725 131.722C127.356 131.722 126.381 132.252 126.381 133.806ZM136.301 137.284C134.34 137.284 133.094 136.051 133.094 134.115C133.094 132.264 134.327 130.945 136.289 130.945C138.077 130.945 139.347 131.981 139.347 133.794C139.347 134.016 139.323 134.201 139.286 134.361H133.92C133.97 135.73 134.673 136.557 136.289 136.557C137.719 136.557 138.385 136.026 138.385 135.138V135.052H139.261V135.138C139.261 136.409 138.003 137.284 136.301 137.284ZM136.276 131.672C134.698 131.672 133.982 132.486 133.92 133.819H138.521C138.521 133.757 138.521 133.695 138.521 133.634C138.521 132.351 137.707 131.672 136.276 131.672ZM141.298 137.161H140.509V128.897H141.385V132.77H141.446C141.705 131.722 142.581 130.945 144.049 130.945C145.961 130.945 147.009 132.264 147.009 134.115C147.009 135.965 145.961 137.284 143.975 137.284C142.618 137.284 141.644 136.581 141.36 135.36H141.298V137.161ZM141.385 134.213C141.385 135.656 142.297 136.483 143.765 136.483C145.221 136.483 146.121 135.878 146.121 134.115C146.121 132.351 145.196 131.759 143.79 131.759C142.248 131.759 141.385 132.597 141.385 134.102V134.213ZM150.984 137.284C149.023 137.284 147.777 136.051 147.777 134.115C147.777 132.264 149.01 130.945 150.972 130.945C152.76 130.945 154.03 131.981 154.03 133.794C154.03 134.016 154.006 134.201 153.969 134.361H148.603C148.653 135.73 149.356 136.557 150.972 136.557C152.402 136.557 153.068 136.026 153.068 135.138V135.052H153.944V135.138C153.944 136.409 152.686 137.284 150.984 137.284ZM150.959 131.672C149.381 131.672 148.665 132.486 148.603 133.819H153.204C153.204 133.757 153.204 133.695 153.204 133.634C153.204 132.351 152.39 131.672 150.959 131.672ZM156.068 137.161H155.192V131.068H155.981V132.98H156.043C156.253 131.944 157.116 130.945 158.633 130.945C160.348 130.945 161.199 132.166 161.199 133.609V137.161H160.323V133.732C160.323 132.474 159.719 131.746 158.325 131.746C156.845 131.746 156.068 132.647 156.068 134.213V137.161Z" fill="#BCBCBC"/>
<defs>
<clipPath id="clip0_236_3604">
<rect width="193.823" height="29.9545" fill="white" transform="translate(37.3494 0.567383)"/>
</clipPath>
</defs>
</svg>
