<svg width="1080" height="1080" viewBox="0 0 1080 1080" fill="none" xmlns="http://www.w3.org/2000/svg">
<g clip-path="url(#clip0_218_343)">
<rect width="1080" height="1080" fill="white"/>
<path d="M0 0V1080H1080V0H0ZM235.819 889.868V688.671L499.191 889.868H235.819ZM599.325 884.192L235.819 606.467V533.964L669.242 865.222C646.709 873.971 623.267 880.332 599.325 884.192ZM780.411 791.713C765.879 806.444 749.933 819.798 732.788 831.593L235.819 451.832V190.132H514.818C635.987 190.132 726.69 225.006 786.929 294.754C846.327 362.082 878.444 448.079 877.287 536.695C877.287 641.222 844.995 726.228 780.411 791.713Z" fill="black"/>
</g>
<defs>
<clipPath id="clip0_218_343">
<rect width="1080" height="1080" fill="white"/>
</clipPath>
</defs>
</svg>
