<svg width="20" height="20" viewBox="0 0 20 20" fill="none" xmlns="http://www.w3.org/2000/svg">
<g clip-path="url(#clip0_236_3405)">
<mask id="mask0_236_3405" style="mask-type:luminance" maskUnits="userSpaceOnUse" x="0" y="0" width="20" height="20">
<rect x="0.979492" y="0.464844" width="18.9722" height="18.9722" fill="white"/>
</mask>
<g mask="url(#mask0_236_3405)">
<path fill-rule="evenodd" clip-rule="evenodd" d="M17.5805 1.65039H3.34759C2.69542 1.65039 2.16553 2.18769 2.16553 2.84727V17.0542C2.16553 17.7138 2.69542 18.2511 3.34759 18.2511H17.5805C18.2326 18.2511 18.7662 17.7138 18.7662 17.0542V2.84727C18.7662 2.18769 18.2326 1.65039 17.5805 1.65039ZM7.18556 15.8804H4.7251V7.95801H7.18926V15.8804H7.18556ZM5.94664 6.87571C5.15737 6.87571 4.52002 6.23465 4.52002 5.44908C4.52002 4.66351 5.15737 4.02246 5.94664 4.02246C6.73221 4.02246 7.37326 4.66351 7.37326 5.44908C7.37326 6.23836 6.73592 6.87571 5.94664 6.87571ZM16.4058 15.8795H13.9454V12.0258C13.9454 11.1068 13.9269 9.92476 12.667 9.92476C11.3849 9.92476 11.1885 10.9252 11.1885 11.9591V15.8795H8.72803V7.95713H11.0884V9.03914H11.1218C11.4516 8.41662 12.2557 7.76074 13.4526 7.76074C15.9427 7.76074 16.4058 9.40228 16.4058 11.5367V15.8795Z" fill="#121212"/>
</g>
</g>
<defs>
<clipPath id="clip0_236_3405">
<rect width="18.9722" height="18.9722" fill="white" transform="translate(0.97583 0.464844)"/>
</clipPath>
</defs>
</svg>
