<svg width="134" height="34" viewBox="0 0 134 34" fill="none" xmlns="http://www.w3.org/2000/svg">
<path d="M1 0.967926V33.0321H32.3974V0.967926H1ZM7.85566 27.3872V21.4139L15.5123 27.3872H7.85566ZM18.4234 27.2187L7.85566 18.9733V16.8208L20.456 26.6555C19.8009 26.9153 19.1194 27.1041 18.4234 27.2187ZM23.6879 24.4731C23.2654 24.9105 22.8018 25.3069 22.3034 25.6571L7.85566 14.3824V6.61275H15.9666C19.4892 6.61275 22.1261 7.64813 23.8773 9.7189C25.6041 11.7178 26.5378 14.271 26.5042 16.9019C26.5042 20.0052 25.5654 22.5289 23.6879 24.4731Z" fill="white"/>
<path d="M48.3701 5.57386H40.3496V13.6656H45.571V10.2267H48.0988C51.3781 10.2267 52.2114 10.9157 52.2114 14.7984C52.2114 18.6811 51.3846 19.3681 48.101 19.3681H45.571V15.9291H40.3496V24.0209H48.3701C54.4851 24.0209 57.844 20.6353 57.844 14.7984C57.844 8.9616 54.4937 5.57386 48.3701 5.57386Z" fill="white"/>
<path d="M58.7158 20.4154C58.7158 18.2117 60.1606 16.8912 63.1901 16.3941L67.7483 15.6794V15.1824C67.7483 14.3013 67.4426 13.9984 65.9138 13.9984C64.3851 13.9984 64.0255 14.2757 64.0255 15.129V15.5685H59.0496V15.2378C59.0496 11.7413 61.8271 9.59513 66.1076 9.59513C70.5259 9.59513 72.72 11.5493 72.72 15.5408V24.0208H67.8302V22.3141H67.5804C66.9689 23.1952 65.7179 24.296 63.0587 24.296C60.6041 24.296 58.7158 23.0032 58.7158 20.4154ZM64.7727 20.552C66.8009 20.552 67.6644 20.0293 67.7462 18.7066L64.2731 19.2848C63.7176 19.368 63.4958 19.56 63.4958 19.9461C63.4958 20.441 63.8016 20.5498 64.7727 20.5498V20.552Z" fill="white"/>
<path d="M74.2754 28.4261V9.86605H79.1394V11.7861H79.3052C80.0825 10.4655 81.5832 9.58445 83.7235 9.58445C87.78 9.58445 89.537 12.4751 89.537 16.9338C89.537 21.3925 87.8425 24.2853 83.7859 24.2853C81.7296 24.2853 80.3408 23.432 79.7293 22.1392H79.4774V28.4155L74.2754 28.4261ZM81.889 19.8096C84.0852 19.8096 84.3263 18.8432 84.3263 16.9445C84.3263 15.0458 84.0486 14.1093 81.8804 14.1093C80.2418 14.1093 79.4624 14.4954 79.4624 16.456V17.4757C79.471 19.3957 80.2504 19.8096 81.889 19.8096Z" fill="white"/>
<path d="M90.6433 17.0832C90.6433 12.4026 93.3111 9.59513 98.0631 9.59513C102.677 9.59513 104.983 12.2639 104.983 16.0378C104.969 16.7393 104.897 17.4385 104.768 18.1285H95.5095C95.5934 19.6432 96.065 20.0016 97.9834 20.0016C99.2323 20.0016 99.65 19.7541 99.65 19.1205V19.0565H104.818V19.3872C104.818 22.2501 102.15 24.2939 97.8995 24.2939C93.2573 24.296 90.6433 21.5995 90.6433 17.0832ZM95.5073 15.321H100.01C99.9816 14.4122 99.5079 13.6698 97.7853 13.6698C96.1705 13.6698 95.5913 14.1648 95.5073 15.321Z" fill="white"/>
<path d="M106.149 24.0208V9.87033H111.011V12.0165H111.261C112.068 10.6405 113.429 9.59513 115.319 9.59513C118.069 9.59513 119.042 11.3573 119.042 14.137V16.697H113.825V15.2933C113.825 14.248 113.629 13.945 112.658 13.945C111.797 13.945 111.351 14.0538 111.351 15.0736V24.0208H106.149Z" fill="white"/>
<path d="M127.906 19.5067L126.018 19.72L125.934 19.3893L127.906 18.2032L128.421 17.7765H121.709L119.238 20.0848V24.0208H133.048V19.5067H127.906ZM126.156 14.1093L126.24 14.44L124.099 15.5408L123.873 15.7541H130.798L132.63 14.1946V9.87036H119.653V14.3845H124.099L126.156 14.1093Z" fill="white"/>
</svg>
