<svg width="98" height="22" viewBox="0 0 98 22" fill="none" xmlns="http://www.w3.org/2000/svg">
<path d="M9.48592 4.82398C9.84185 4.08081 10.8703 4.08081 11.2262 4.82398L12.6293 7.7531C12.7705 8.04795 13.0434 8.25241 13.3591 8.29996L16.4983 8.7728C17.2939 8.89264 17.611 9.90048 17.035 10.4787L14.765 12.7571C14.5361 12.9868 14.4316 13.3179 14.4857 13.6425L15.0211 16.86C15.1572 17.677 14.325 18.2999 13.6131 17.9141L10.8078 16.3938C10.525 16.2406 10.1871 16.2406 9.90444 16.3938L7.09908 17.9141C6.38717 18.2999 5.555 17.677 5.69098 16.86L6.22649 13.6425C6.2805 13.3179 6.17603 12.9868 5.94713 12.7571L3.67719 10.4787C3.10117 9.90048 3.41827 8.89264 4.21392 8.7728L7.35306 8.29996C7.66879 8.25241 7.94164 8.04795 8.08287 7.7531L9.48592 4.82398Z" fill="#FFE000"/>
<path d="M28.8921 4.82398C29.2481 4.08081 30.2765 4.08081 30.6324 4.82398L32.0355 7.7531C32.1767 8.04795 32.4496 8.25241 32.7654 8.29996L35.9045 8.7728C36.7001 8.89264 37.0172 9.90048 36.4412 10.4787L34.1713 12.7571C33.9423 12.9868 33.8378 13.3179 33.8919 13.6425L34.4273 16.86C34.5634 17.677 33.7312 18.2999 33.0193 17.9141L30.214 16.3938C29.9312 16.2406 29.5933 16.2406 29.3107 16.3938L26.5052 17.9141C25.7934 18.2999 24.9612 17.677 25.0972 16.86L25.6327 13.6425C25.6867 13.3179 25.5822 12.9868 25.3534 12.7571L23.0834 10.4787C22.5074 9.90048 22.8245 8.89264 23.6202 8.7728L26.7593 8.29996C27.075 8.25241 27.3478 8.04795 27.4891 7.7531L28.8921 4.82398Z" fill="#FFE000"/>
<path d="M48.2984 4.82398C48.6543 4.08081 49.6827 4.08081 50.0387 4.82398L51.4418 7.7531C51.583 8.04795 51.8558 8.25241 52.1716 8.29996L55.3107 8.7728C56.1064 8.89264 56.4235 9.90048 55.8475 10.4787L53.5775 12.7571C53.3486 12.9868 53.2441 13.3179 53.2981 13.6425L53.8336 16.86C53.9696 17.677 53.1374 18.2999 52.4256 17.9141L49.6202 16.3938C49.3375 16.2406 48.9996 16.2406 48.7169 16.3938L45.9115 17.9141C45.1996 18.2999 44.3675 17.677 44.5035 16.86L45.0389 13.6425C45.093 13.3179 44.9885 12.9868 44.7596 12.7571L42.4897 10.4787C41.9137 9.90048 42.2308 8.89264 43.0264 8.7728L46.1655 8.29996C46.4812 8.25241 46.7541 8.04795 46.8954 7.7531L48.2984 4.82398Z" fill="#FFE000"/>
<path d="M67.7046 4.82398C68.0606 4.08081 69.089 4.08081 69.4449 4.82398L70.848 7.7531C70.9892 8.04795 71.2621 8.25241 71.5779 8.29996L74.717 8.7728C75.5126 8.89264 75.8297 9.90048 75.2537 10.4787L72.9838 12.7571C72.7548 12.9868 72.6503 13.3179 72.7044 13.6425L73.2398 16.86C73.3759 17.677 72.5437 18.2999 71.8318 17.9141L69.0265 16.3938C68.7437 16.2406 68.4058 16.2406 68.1231 16.3938L65.3177 17.9141C64.6059 18.2999 63.7738 17.677 63.9097 16.86L64.4452 13.6425C64.4992 13.3179 64.3947 12.9868 64.1659 12.7571L61.8959 10.4787C61.3199 9.90048 61.637 8.89264 62.4327 8.7728L65.5718 8.29996C65.8875 8.25241 66.1603 8.04795 66.3016 7.7531L67.7046 4.82398Z" fill="#FFE000"/>
<path d="M87.1187 4.82398C87.4746 4.08081 88.5031 4.08081 88.859 4.82398L90.2621 7.7531C90.4033 8.04795 90.6762 8.25241 90.9919 8.29996L94.131 8.7728C94.9267 8.89264 95.2438 9.90048 94.6678 10.4787L92.3978 12.7571C92.1689 12.9868 92.0644 13.3179 92.1184 13.6425L92.6539 16.86C92.79 17.677 91.9577 18.2999 91.2459 17.9141L88.4406 16.3938C88.1578 16.2406 87.8199 16.2406 87.5372 16.3938L84.7318 17.9141C84.0199 18.2999 83.1878 17.677 83.3238 16.86L83.8592 13.6425C83.9133 13.3179 83.8088 12.9868 83.5799 12.7571L81.31 10.4787C80.734 9.90048 81.0511 8.89264 81.8467 8.7728L84.9859 8.29996C85.3015 8.25241 85.5744 8.04795 85.7157 7.7531L87.1187 4.82398Z" fill="#FFE000"/>
</svg>
