<svg width="108" height="21" viewBox="0 0 108 21" fill="none" xmlns="http://www.w3.org/2000/svg">
<path d="M11.2567 4.47144C11.6453 3.72827 12.768 3.72827 13.1566 4.47144L14.6884 7.40056C14.8425 7.69541 15.1404 7.89987 15.4852 7.94742L18.9123 8.42026C19.7809 8.5401 20.1271 9.54794 19.4982 10.1261L17.02 12.4045C16.7701 12.6342 16.656 12.9653 16.715 13.2899L17.2996 16.5074C17.4482 17.3244 16.5396 17.9473 15.7624 17.5615L12.6998 16.0412C12.3911 15.888 12.0222 15.888 11.7136 16.0412L8.6509 17.5615C7.87369 17.9473 6.96519 17.3244 7.11364 16.5074L7.69827 13.2899C7.75724 12.9653 7.64318 12.6342 7.39329 12.4045L4.91512 10.1261C4.28627 9.54794 4.63246 8.5401 5.50109 8.42026L8.92818 7.94742C9.27286 7.89987 9.57075 7.69541 9.72493 7.40056L11.2567 4.47144Z" fill="#FFE000"/>
<path d="M32.4519 4.47144C32.8405 3.72827 33.9633 3.72827 34.3519 4.47144L35.8837 7.40056C36.0378 7.69541 36.3357 7.89987 36.6805 7.94742L40.1075 8.42026C40.9761 8.5401 41.3223 9.54794 40.6935 10.1261L38.2153 12.4045C37.9654 12.6342 37.8513 12.9653 37.9103 13.2899L38.4949 16.5074C38.6434 17.3244 37.7349 17.9473 36.9577 17.5615L33.8951 16.0412C33.5863 15.888 33.2175 15.888 32.9089 16.0412L29.8461 17.5615C29.0689 17.9473 28.1605 17.3244 28.3089 16.5074L28.8935 13.2899C28.9525 12.9653 28.8384 12.6342 28.5886 12.4045L26.1104 10.1261C25.4816 9.54794 25.8278 8.5401 26.6964 8.42026L30.1235 7.94742C30.4681 7.89987 30.766 7.69541 30.9202 7.40056L32.4519 4.47144Z" fill="#FFE000"/>
<path d="M53.6394 4.47144C54.028 3.72827 55.1508 3.72827 55.5394 4.47144L57.0712 7.40056C57.2253 7.69541 57.5232 7.89987 57.868 7.94742L61.295 8.42026C62.1636 8.5401 62.5098 9.54794 61.881 10.1261L59.4028 12.4045C59.1529 12.6342 59.0388 12.9653 59.0978 13.2899L59.6824 16.5074C59.8309 17.3244 58.9224 17.9473 58.1452 17.5615L55.0826 16.0412C54.7739 15.888 54.405 15.888 54.0964 16.0412L51.0336 17.5615C50.2564 17.9473 49.348 17.3244 49.4964 16.5074L50.081 13.2899C50.14 12.9653 50.0259 12.6342 49.7761 12.4045L47.2979 10.1261C46.6691 9.54794 47.0153 8.5401 47.8839 8.42026L51.311 7.94742C51.6556 7.89987 51.9535 7.69541 52.1077 7.40056L53.6394 4.47144Z" fill="#FFE000"/>
<path d="M74.8269 4.47144C75.2155 3.72827 76.3383 3.72827 76.7269 4.47144L78.2587 7.40056C78.4128 7.69541 78.7107 7.89987 79.0555 7.94742L82.4825 8.42026C83.3511 8.5401 83.6973 9.54794 83.0685 10.1261L80.5903 12.4045C80.3404 12.6342 80.2263 12.9653 80.2853 13.2899L80.8699 16.5074C81.0184 17.3244 80.1099 17.9473 79.3327 17.5615L76.2701 16.0412C75.9613 15.888 75.5925 15.888 75.2839 16.0412L72.2211 17.5615C71.4439 17.9473 70.5355 17.3244 70.6839 16.5074L71.2685 13.2899C71.3275 12.9653 71.2134 12.6342 70.9636 12.4045L68.4854 10.1261C67.8566 9.54794 68.2028 8.5401 69.0714 8.42026L72.4985 7.94742C72.8431 7.89987 73.141 7.69541 73.2952 7.40056L74.8269 4.47144Z" fill="#FFE000"/>
<path d="M96.0144 4.47144C96.403 3.72827 97.5258 3.72827 97.9144 4.47144L99.4462 7.40056C99.6003 7.69541 99.8982 7.89987 100.243 7.94742L103.67 8.42026C104.539 8.5401 104.885 9.54794 104.256 10.1261L101.778 12.4045C101.528 12.6342 101.414 12.9653 101.473 13.2899L102.057 16.5074C102.206 17.3244 101.297 17.9473 100.52 17.5615L97.4576 16.0412C97.1488 15.888 96.78 15.888 96.4714 16.0412L93.4086 17.5615C92.6314 17.9473 91.723 17.3244 91.8714 16.5074L92.456 13.2899C92.515 12.9653 92.4009 12.6342 92.1511 12.4045L89.6729 10.1261C89.0441 9.54794 89.3903 8.5401 90.2589 8.42026L93.686 7.94742C94.0306 7.89987 94.3285 7.69541 94.4827 7.40056L96.0144 4.47144Z" fill="#FFE000"/>
</svg>
