<svg width="107" height="22" viewBox="0 0 107 22" fill="none" xmlns="http://www.w3.org/2000/svg">
<path d="M10.3504 4.68451C10.739 3.90595 11.8618 3.90595 12.2504 4.68451L13.7821 7.75311C13.9363 8.062 14.2342 8.27619 14.5789 8.32601L18.006 8.82136C18.8746 8.94691 19.2208 10.0027 18.592 10.6085L16.1138 12.9954C15.8639 13.236 15.7498 13.5829 15.8088 13.9229L16.3934 17.2936C16.5419 18.1495 15.6334 18.8021 14.8562 18.3979L11.7935 16.8052C11.4848 16.6447 11.1159 16.6447 10.8073 16.8052L7.74465 18.3979C6.96744 18.8021 6.05894 18.1495 6.20739 17.2936L6.79202 13.9229C6.85099 13.5829 6.73693 13.236 6.48704 12.9954L4.00887 10.6085C3.38002 10.0027 3.72621 8.94691 4.59484 8.82136L8.02193 8.32601C8.36661 8.27619 8.6645 8.062 8.81868 7.75311L10.3504 4.68451Z" fill="#FFE000"/>
<path d="M31.5457 4.68451C31.9343 3.90595 33.057 3.90595 33.4456 4.68451L34.9774 7.75311C35.1316 8.062 35.4295 8.27619 35.7742 8.32601L39.2013 8.82136C40.0699 8.94691 40.4161 10.0027 39.7872 10.6085L37.3091 12.9954C37.0592 13.236 36.9451 13.5829 37.0041 13.9229L37.5886 17.2936C37.7372 18.1495 36.8286 18.8021 36.0514 18.3979L32.9888 16.8052C32.6801 16.6447 32.3112 16.6447 32.0026 16.8052L28.9399 18.3979C28.1627 18.8021 27.2542 18.1495 27.4027 17.2936L27.9872 13.9229C28.0463 13.5829 27.9322 13.236 27.6824 12.9954L25.2042 10.6085C24.5753 10.0027 24.9215 8.94691 25.7901 8.82136L29.2172 8.32601C29.5618 8.27619 29.8597 8.062 30.014 7.75311L31.5457 4.68451Z" fill="#FFE000"/>
<path d="M52.7332 4.68451C53.1218 3.90595 54.2445 3.90595 54.6331 4.68451L56.1649 7.75311C56.3191 8.062 56.617 8.27619 56.9617 8.32601L60.3888 8.82136C61.2574 8.94691 61.6036 10.0027 60.9747 10.6085L58.4966 12.9954C58.2467 13.236 58.1326 13.5829 58.1916 13.9229L58.7761 17.2936C58.9247 18.1495 58.0161 18.8021 57.239 18.3979L54.1763 16.8052C53.8676 16.6447 53.4987 16.6447 53.1901 16.8052L50.1274 18.3979C49.3502 18.8021 48.4417 18.1495 48.5902 17.2936L49.1748 13.9229C49.2338 13.5829 49.1197 13.236 48.8699 12.9954L46.3917 10.6085C45.7628 10.0027 46.109 8.94691 46.9776 8.82136L50.4047 8.32601C50.7493 8.27619 51.0472 8.062 51.2015 7.75311L52.7332 4.68451Z" fill="#FFE000"/>
<path d="M73.9207 4.68451C74.3093 3.90595 75.432 3.90595 75.8206 4.68451L77.3524 7.75311C77.5066 8.062 77.8045 8.27619 78.1492 8.32601L81.5763 8.82136C82.4449 8.94691 82.7911 10.0027 82.1622 10.6085L79.6841 12.9954C79.4342 13.236 79.3201 13.5829 79.3791 13.9229L79.9636 17.2936C80.1122 18.1495 79.2036 18.8021 78.4264 18.3979L75.3638 16.8052C75.0551 16.6447 74.6862 16.6447 74.3776 16.8052L71.3149 18.3979C70.5377 18.8021 69.6292 18.1495 69.7777 17.2936L70.3622 13.9229C70.4213 13.5829 70.3072 13.236 70.0574 12.9954L67.5792 10.6085C66.9503 10.0027 67.2965 8.94691 68.1651 8.82136L71.5922 8.32601C71.9368 8.27619 72.2347 8.062 72.389 7.75311L73.9207 4.68451Z" fill="#FFE000"/>
<path d="M95.1082 4.68451C95.4968 3.90595 96.6195 3.90595 97.0081 4.68451L98.5399 7.75311C98.6941 8.062 98.992 8.27619 99.3367 8.32601L102.764 8.82136C103.632 8.94691 103.979 10.0027 103.35 10.6085L100.872 12.9954C100.622 13.236 100.508 13.5829 100.567 13.9229L101.151 17.2936C101.3 18.1495 100.391 18.8021 99.6139 18.3979L96.5513 16.8052C96.2426 16.6447 95.8737 16.6447 95.5651 16.8052L92.5024 18.3979C91.7252 18.8021 90.8167 18.1495 90.9652 17.2936L91.5497 13.9229C91.6088 13.5829 91.4947 13.236 91.2449 12.9954L88.7667 10.6085C88.1378 10.0027 88.484 8.94691 89.3526 8.82136L92.7797 8.32601C93.1243 8.27619 93.4222 8.062 93.5765 7.75311L95.1082 4.68451Z" fill="#FFE000"/>
</svg>
