<svg width="25" height="24" viewBox="0 0 25 24" fill="none" xmlns="http://www.w3.org/2000/svg">
<g clip-path="url(#clip0_236_9134)">
<mask id="mask0_236_9134" style="mask-type:luminance" maskUnits="userSpaceOnUse" x="0" y="0" width="25" height="24">
<rect x="0.125" width="24" height="24" fill="white"/>
</mask>
<g mask="url(#mask0_236_9134)">
<path d="M9.25684 23.2502C8.98932 23.2504 8.76949 23.1481 8.59734 22.9434C8.42519 22.7386 8.36221 22.5045 8.4084 22.241V22.2358L9.72606 15.0002H4.62465C4.48015 15.0002 4.3468 14.9616 4.22458 14.8845C4.10237 14.8074 4.01014 14.7037 3.94789 14.5733C3.88564 14.4429 3.86297 14.3059 3.87988 14.1624C3.89679 14.0189 3.95067 13.891 4.04152 13.7786L14.3151 1.07831C14.4353 0.925776 14.5894 0.825127 14.7773 0.776367C14.9653 0.727607 15.1488 0.740672 15.328 0.81556C15.5072 0.890448 15.6454 1.0119 15.7428 1.17992C15.8401 1.34794 15.8767 1.52829 15.8526 1.72097C15.8526 1.73503 15.8489 1.74863 15.8465 1.76269L14.5242 9.00019H19.6247C19.7691 9.0002 19.9025 9.03876 20.0247 9.11585C20.1469 9.19294 20.2392 9.29669 20.3014 9.42709C20.3637 9.5575 20.3863 9.69445 20.3694 9.83795C20.3525 9.98146 20.2986 10.1094 20.2078 10.2218L9.93278 22.9221C9.851 23.0254 9.75084 23.1058 9.6323 23.1634C9.51376 23.2209 9.38861 23.2499 9.25684 23.2502Z" fill="#121212"/>
</g>
</g>
<defs>
<clipPath id="clip0_236_9134">
<rect width="24" height="24" fill="white" transform="translate(0.125)"/>
</clipPath>
</defs>
</svg>
