<svg width="24" height="24" viewBox="0 0 24 24" fill="none" xmlns="http://www.w3.org/2000/svg">
<g clip-path="url(#clip0_236_9107)">
<mask id="mask0_236_9107" style="mask-type:luminance" maskUnits="userSpaceOnUse" x="0" y="0" width="24" height="24">
<rect width="24" height="24" fill="white"/>
</mask>
<g mask="url(#mask0_236_9107)">
<path d="M9.13184 23.2502C8.86432 23.2504 8.64449 23.1481 8.47234 22.9434C8.30019 22.7386 8.23721 22.5045 8.2834 22.241V22.2358L9.60106 15.0002H4.49965C4.35515 15.0002 4.2218 14.9616 4.09958 14.8845C3.97737 14.8074 3.88514 14.7037 3.82289 14.5733C3.76064 14.4429 3.73797 14.3059 3.75488 14.1624C3.77179 14.0189 3.82567 13.891 3.91652 13.7786L14.1901 1.07831C14.3103 0.925776 14.4644 0.825127 14.6523 0.776367C14.8403 0.727607 15.0238 0.740672 15.203 0.81556C15.3822 0.890448 15.5204 1.0119 15.6178 1.17992C15.7151 1.34794 15.7517 1.52829 15.7276 1.72097C15.7276 1.73503 15.7239 1.74863 15.7215 1.76269L14.3992 9.00019H19.4997C19.6441 9.0002 19.7775 9.03876 19.8997 9.11585C20.0219 9.19294 20.1142 9.29669 20.1764 9.42709C20.2387 9.5575 20.2613 9.69445 20.2444 9.83795C20.2275 9.98146 20.1736 10.1094 20.0828 10.2218L9.80778 22.9221C9.726 23.0254 9.62584 23.1058 9.5073 23.1634C9.38876 23.2209 9.26361 23.2499 9.13184 23.2502Z" fill="#121212"/>
</g>
</g>
<defs>
<clipPath id="clip0_236_9107">
<rect width="24" height="24" fill="white"/>
</clipPath>
</defs>
</svg>
