<svg width="99" height="21" viewBox="0 0 99 21" fill="none" xmlns="http://www.w3.org/2000/svg">
<path d="M9.65779 4.47144C10.0137 3.72827 11.0421 3.72827 11.3981 4.47144L12.8012 7.40056C12.9424 7.69541 13.2152 7.89987 13.531 7.94742L16.6701 8.42026C17.4658 8.5401 17.7829 9.54794 17.2069 10.1261L14.9369 12.4045C14.708 12.6342 14.6035 12.9653 14.6575 13.2899L15.193 16.5074C15.3291 17.3244 14.4968 17.9473 13.785 17.5615L10.9797 16.0412C10.6969 15.888 10.359 15.888 10.0763 16.0412L7.27095 17.5615C6.55904 17.9473 5.72688 17.3244 5.86285 16.5074L6.39836 13.2899C6.45238 12.9653 6.3479 12.6342 6.11901 12.4045L3.84906 10.1261C3.27304 9.54794 3.59015 8.5401 4.38579 8.42026L7.52493 7.94742C7.84066 7.89987 8.11352 7.69541 8.25475 7.40056L9.65779 4.47144Z" fill="#FFE000"/>
<path d="M29.064 4.47144C29.4199 3.72827 30.4484 3.72827 30.8043 4.47144L32.2074 7.40056C32.3486 7.69541 32.6215 7.89987 32.9372 7.94742L36.0764 8.42026C36.872 8.5401 37.1891 9.54794 36.6131 10.1261L34.3431 12.4045C34.1142 12.6342 34.0097 12.9653 34.0638 13.2899L34.5992 16.5074C34.7353 17.3244 33.9031 17.9473 33.1912 17.5615L30.3859 16.0412C30.1031 15.888 29.7652 15.888 29.4825 16.0412L26.6771 17.5615C25.9652 17.9473 25.1331 17.3244 25.2691 16.5074L25.8045 13.2899C25.8586 12.9653 25.7541 12.6342 25.5253 12.4045L23.2553 10.1261C22.6793 9.54794 22.9964 8.5401 23.792 8.42026L26.9312 7.94742C27.2468 7.89987 27.5197 7.69541 27.661 7.40056L29.064 4.47144Z" fill="#FFE000"/>
<path d="M48.4702 4.47144C48.8262 3.72827 49.8546 3.72827 50.2106 4.47144L51.6136 7.40056C51.7548 7.69541 52.0277 7.89987 52.3435 7.94742L55.4826 8.42026C56.2782 8.5401 56.5954 9.54794 56.0193 10.1261L53.7494 12.4045C53.5205 12.6342 53.416 12.9653 53.47 13.2899L54.0055 16.5074C54.1415 17.3244 53.3093 17.9473 52.5974 17.5615L49.7921 16.0412C49.5093 15.888 49.1715 15.888 48.8888 16.0412L46.0834 17.5615C45.3715 17.9473 44.5394 17.3244 44.6753 16.5074L45.2108 13.2899C45.2648 12.9653 45.1603 12.6342 44.9315 12.4045L42.6616 10.1261C42.0855 9.54794 42.4027 8.5401 43.1983 8.42026L46.3374 7.94742C46.6531 7.89987 46.926 7.69541 47.0672 7.40056L48.4702 4.47144Z" fill="#FFE000"/>
<path d="M67.8765 4.47144C68.2324 3.72827 69.2609 3.72827 69.6168 4.47144L71.0199 7.40056C71.1611 7.69541 71.434 7.89987 71.7497 7.94742L74.8889 8.42026C75.6845 8.5401 76.0016 9.54794 75.4256 10.1261L73.1556 12.4045C72.9267 12.6342 72.8222 12.9653 72.8763 13.2899L73.4117 16.5074C73.5478 17.3244 72.7156 17.9473 72.0037 17.5615L69.1984 16.0412C68.9156 15.888 68.5777 15.888 68.295 16.0412L65.4896 17.5615C64.7777 17.9473 63.9456 17.3244 64.0816 16.5074L64.617 13.2899C64.6711 12.9653 64.5666 12.6342 64.3378 12.4045L62.0678 10.1261C61.4918 9.54794 61.8089 8.5401 62.6045 8.42026L65.7437 7.94742C66.0593 7.89987 66.3322 7.69541 66.4735 7.40056L67.8765 4.47144Z" fill="#FFE000"/>
<path d="M87.2906 4.47144C87.6465 3.72827 88.6749 3.72827 89.0309 4.47144L90.434 7.40056C90.5752 7.69541 90.848 7.89987 91.1638 7.94742L94.3029 8.42026C95.0985 8.5401 95.4157 9.54794 94.8396 10.1261L92.5697 12.4045C92.3408 12.6342 92.2363 12.9653 92.2903 13.2899L92.8258 16.5074C92.9618 17.3244 92.1296 17.9473 91.4177 17.5615L88.6124 16.0412C88.3297 15.888 87.9918 15.888 87.7091 16.0412L84.9037 17.5615C84.1918 17.9473 83.3597 17.3244 83.4956 16.5074L84.0311 13.2899C84.0852 12.9653 83.9806 12.6342 83.7518 12.4045L81.4819 10.1261C80.9058 9.54794 81.223 8.5401 82.0186 8.42026L85.1577 7.94742C85.4734 7.89987 85.7463 7.69541 85.8876 7.40056L87.2906 4.47144Z" fill="#FFE000"/>
</svg>
