<svg width="19" height="18" viewBox="0 0 19 18" fill="none" xmlns="http://www.w3.org/2000/svg">
<path fill-rule="evenodd" clip-rule="evenodd" d="M9.125 18C10.3069 18 11.4772 17.7672 12.5692 17.3149C13.6611 16.8626 14.6532 16.1997 15.489 15.364C16.3247 14.5282 16.9876 13.5361 17.4399 12.4442C17.8922 11.3522 18.125 10.1819 18.125 9C18.125 7.8181 17.8922 6.64778 17.4399 5.55585C16.9876 4.46392 16.3247 3.47177 15.489 2.63604C14.6532 1.80031 13.6611 1.13738 12.5692 0.685084C11.4772 0.232792 10.3069 -1.76116e-08 9.125 0C6.73805 3.55683e-08 4.44887 0.948211 2.76104 2.63604C1.07321 4.32387 0.125 6.61305 0.125 9C0.125 11.3869 1.07321 13.6761 2.76104 15.364C4.44887 17.0518 6.73805 18 9.125 18ZM8.893 12.64L13.893 6.64L12.357 5.36L8.057 10.519L5.832 8.293L4.418 9.707L7.418 12.707L8.192 13.481L8.893 12.64Z" fill="#121212"/>
</svg>
