<svg width="20" height="20" viewBox="0 0 20 20" fill="none" xmlns="http://www.w3.org/2000/svg">
<g clip-path="url(#clip0_236_3413)">
<mask id="mask0_236_3413" style="mask-type:luminance" maskUnits="userSpaceOnUse" x="0" y="0" width="20" height="20">
<rect x="0.944336" y="0.464844" width="18.9722" height="18.9722" fill="white"/>
</mask>
<g mask="url(#mask0_236_3413)">
</g>
<g clip-path="url(#clip1_236_3413)">
<mask id="mask1_236_3413" style="mask-type:luminance" maskUnits="userSpaceOnUse" x="0" y="0" width="20" height="20">
<rect x="0.944336" y="0.464844" width="18.9722" height="18.9722" fill="white"/>
</mask>
<g mask="url(#mask1_236_3413)">
<path d="M17.9663 6.08626C17.9784 6.25479 17.9784 6.42335 17.9784 6.59188C17.9784 11.7322 14.066 17.655 6.91529 17.655C4.71229 17.655 2.66581 17.0169 0.944336 15.9095C1.25734 15.9456 1.55827 15.9576 1.88331 15.9576C3.70105 15.9576 5.37439 15.3437 6.71063 14.2963C5.0012 14.2602 3.56865 13.1407 3.07508 11.5998C3.31586 11.6359 3.55661 11.6599 3.80944 11.6599C4.15853 11.6599 4.50767 11.6118 4.83268 11.5275C3.05103 11.1664 1.71475 9.60142 1.71475 7.71143V7.66329C2.23237 7.95221 2.83433 8.13278 3.47231 8.15683C2.42498 7.4586 1.73883 6.26683 1.73883 4.91855C1.73883 4.19627 1.93141 3.53417 2.2685 2.95633C4.18258 5.31581 7.05973 6.85668 10.2859 7.02524C10.2258 6.73632 10.1896 6.4354 10.1896 6.13444C10.1896 3.99161 11.9231 2.24609 14.078 2.24609C15.1975 2.24609 16.2087 2.71558 16.919 3.47399C17.7977 3.30546 18.6404 2.98042 19.3868 2.53501C19.0979 3.4379 18.4839 4.1963 17.6774 4.6778C18.4599 4.59357 19.2183 4.37684 19.9165 4.07591C19.3869 4.84633 18.7248 5.53248 17.9663 6.08626Z" fill="#121212"/>
</g>
</g>
</g>
<defs>
<clipPath id="clip0_236_3413">
<rect width="18.9722" height="18.9722" fill="white" transform="translate(0.944336 0.464844)"/>
</clipPath>
<clipPath id="clip1_236_3413">
<rect width="18.9722" height="18.9722" fill="white" transform="translate(0.944336 0.464844)"/>
</clipPath>
</defs>
</svg>
