<svg width="19" height="20" viewBox="0 0 19 20" fill="none" xmlns="http://www.w3.org/2000/svg">
<g clip-path="url(#clip0_236_3392)">
<mask id="mask0_236_3392" style="mask-type:luminance" maskUnits="userSpaceOnUse" x="0" y="0" width="19" height="20">
<rect y="0.464844" width="18.9722" height="18.9722" fill="white"/>
</mask>
<g mask="url(#mask0_236_3392)">
</g>
<g clip-path="url(#clip1_236_3392)">
<mask id="mask1_236_3392" style="mask-type:luminance" maskUnits="userSpaceOnUse" x="0" y="0" width="19" height="20">
<rect y="0.464844" width="18.9722" height="18.9722" fill="white"/>
</mask>
<g mask="url(#mask1_236_3392)">
<path fill-rule="evenodd" clip-rule="evenodd" d="M9.48852 5.68963C7.13182 5.68963 5.23089 7.59056 5.23089 9.94726C5.23089 12.304 7.13182 14.2049 9.48852 14.2049C11.8452 14.2049 13.7462 12.304 13.7462 9.94726C13.7462 7.59056 11.8452 5.68963 9.48852 5.68963ZM9.48799 12.7157C7.96502 12.7157 6.71997 11.4744 6.71997 9.9477C6.71997 8.42103 7.96132 7.17969 9.48799 7.17969C11.0147 7.17969 12.256 8.42103 12.256 9.9477C12.256 11.4744 11.011 12.7157 9.48799 12.7157ZM14.9112 5.51456C14.9112 6.06668 14.4665 6.50764 13.9181 6.50764C13.366 6.50764 12.925 6.06298 12.925 5.51456C12.925 4.96615 13.3697 4.52148 13.9181 4.52148C14.4665 4.52148 14.9112 4.96615 14.9112 5.51456ZM17.7364 6.52279C17.6734 5.19251 17.3696 4.01416 16.395 3.04331C15.4242 2.07247 14.2458 1.76862 12.9155 1.70192C11.5445 1.6241 7.43509 1.6241 6.06405 1.70192C4.73747 1.76491 3.55912 2.06876 2.58457 3.03961C1.61002 4.01045 1.30988 5.1888 1.24318 6.51908C1.16536 7.89012 1.16536 11.9995 1.24318 13.3706C1.30617 14.7009 1.61002 15.8792 2.58457 16.85C3.55912 17.8209 4.73377 18.1247 6.06405 18.1914C7.43509 18.2693 11.5445 18.2693 12.9155 18.1914C14.2458 18.1285 15.4242 17.8246 16.395 16.85C17.3659 15.8792 17.6697 14.7009 17.7364 13.3706C17.8142 11.9995 17.8142 7.89383 17.7364 6.52279ZM15.9595 14.8426C15.6705 15.5689 15.1109 16.1284 14.381 16.4212C13.2878 16.8547 10.694 16.7547 9.48598 16.7547C8.27798 16.7547 5.68042 16.851 4.591 16.4212C3.86472 16.1322 3.30519 15.5726 3.01245 14.8426C2.57891 13.7495 2.67896 11.1556 2.67896 9.94765C2.67896 8.73965 2.58261 6.14209 3.01245 5.05267C3.30148 4.32639 3.86101 3.76686 4.591 3.47412C5.68413 3.04058 8.27798 3.14062 9.48598 3.14062C10.694 3.14062 13.2915 3.04428 14.381 3.47412C15.1072 3.76315 15.6668 4.32268 15.9595 5.05267C16.3931 6.1458 16.293 8.73965 16.293 9.94765C16.293 11.1556 16.3931 13.7532 15.9595 14.8426Z" fill="#121212"/>
</g>
</g>
</g>
<defs>
<clipPath id="clip0_236_3392">
<rect width="18.9722" height="18.9722" fill="white" transform="translate(0 0.464844)"/>
</clipPath>
<clipPath id="clip1_236_3392">
<rect width="18.9722" height="18.9722" fill="white" transform="translate(0 0.464844)"/>
</clipPath>
</defs>
</svg>
