<svg width="20" height="20" viewBox="0 0 20 20" fill="none" xmlns="http://www.w3.org/2000/svg">
<g clip-path="url(#clip0_236_3419)">
<mask id="mask0_236_3419" style="mask-type:luminance" maskUnits="userSpaceOnUse" x="0" y="0" width="20" height="20">
<rect x="0.919678" y="0.464844" width="18.9722" height="18.9722" fill="white"/>
</mask>
<g mask="url(#mask0_236_3419)">
</g>
<g clip-path="url(#clip1_236_3419)">
<mask id="mask1_236_3419" style="mask-type:luminance" maskUnits="userSpaceOnUse" x="0" y="0" width="20" height="20">
<rect x="0.922607" y="0.464844" width="18.9722" height="18.9722" fill="white"/>
</mask>
<g mask="url(#mask1_236_3419)">
<path fill-rule="evenodd" clip-rule="evenodd" d="M10.4187 0.761719C5.35146 0.761719 1.229 4.88418 1.229 9.95139C1.229 15.0186 5.35146 19.1411 10.4187 19.1411C15.4859 19.1411 19.6083 15.0186 19.6083 9.95139C19.6083 4.88418 15.4859 0.761719 10.4187 0.761719ZM16.489 5.00009C17.5822 6.33578 18.2443 8.03701 18.2615 9.8897C18.0027 9.83496 15.4076 9.3086 12.7958 9.63705C12.5827 9.11676 12.3815 8.65906 12.106 8.09504C15.0082 6.91013 16.3235 5.22394 16.489 5.00009ZM15.6243 4.09183C15.4831 4.29293 14.3016 5.88107 11.5104 6.92725C10.2242 4.56402 8.79854 2.62263 8.58158 2.33212C11.0708 1.73208 13.6939 2.37918 15.6243 4.09183ZM7.07936 2.86035C7.28632 3.14416 8.68897 5.08796 9.98956 7.39994C6.31788 8.37497 3.08397 8.36093 2.73291 8.35629C3.2419 5.92055 4.88337 3.89615 7.07936 2.86035ZM2.57373 9.96337C2.57373 9.88311 2.57532 9.80321 2.57773 9.72351C2.92116 9.73055 6.72494 9.77957 10.6449 8.60645C10.8696 9.04622 11.0842 9.49262 11.2812 9.93854C8.44285 10.738 5.864 13.0336 4.59164 15.2117C3.33796 13.8201 2.57373 11.9794 2.57373 9.96337ZM5.60409 16.1554C6.42401 14.4793 8.64921 12.3157 11.8138 11.2361C12.9158 14.0998 13.3715 16.4999 13.4882 17.1886C10.9643 18.2636 7.92941 17.9687 5.60409 16.1554ZM14.8008 16.4706C14.7203 15.9931 14.3025 13.6953 13.2759 10.874C15.7356 10.4803 17.8967 11.1248 18.1652 11.2096C17.8153 13.3936 16.5617 15.2798 14.8008 16.4706Z" fill="#121212"/>
</g>
</g>
</g>
<defs>
<clipPath id="clip0_236_3419">
<rect width="18.9722" height="18.9722" fill="white" transform="translate(0.916748 0.464844)"/>
</clipPath>
<clipPath id="clip1_236_3419">
<rect width="18.9722" height="18.9722" fill="white" transform="translate(0.919678 0.464844)"/>
</clipPath>
</defs>
</svg>
