<svg width="21" height="21" viewBox="0 0 21 21" fill="none" xmlns="http://www.w3.org/2000/svg">
<path d="M5.33413 18.866H15.319C17.1546 18.866 18.6472 17.3729 18.6472 15.5377V7.21702C18.6472 5.38181 17.1546 3.88875 15.319 3.88875H14.4869V3.05668C14.4869 2.59721 14.1147 2.22461 13.6548 2.22461C13.1949 2.22461 12.8228 2.59721 12.8228 3.05668V3.88875H7.83034V3.05668C7.83034 2.59721 7.45774 2.22461 6.99827 2.22461C6.5388 2.22461 6.1662 2.59721 6.1662 3.05668V3.88875H5.33413C3.49892 3.88875 2.00586 5.38181 2.00586 7.21702V15.5377C2.00586 17.3729 3.49892 18.866 5.33413 18.866ZM3.67 9.71323H16.9831V15.5377C16.9831 16.4555 16.2363 17.2018 15.319 17.2018H5.33413C4.41636 17.2018 3.67 16.4555 3.67 15.5377V9.71323Z" fill="#BCBCBC"/>
</svg>
