<svg width="838" height="464" viewBox="0 0 838 464" fill="none" xmlns="http://www.w3.org/2000/svg">
<path d="M104.975 24.6904H96.7979V32.9398H102.121V29.4339H104.698C108.041 29.4339 108.891 30.1363 108.891 34.0946C108.891 38.0529 108.048 38.7532 104.7 38.7532H102.121V35.2473H96.7979V43.4967H104.975C111.209 43.4967 114.633 40.0451 114.633 34.0946C114.633 28.1441 111.217 24.6904 104.975 24.6904Z" fill="#121212"/>
<path d="M115.522 39.8211C115.522 37.5744 116.995 36.2281 120.084 35.7214L124.731 34.9928V34.4861C124.731 33.5878 124.419 33.279 122.861 33.279C121.302 33.279 120.936 33.5617 120.936 34.4317V34.8797H115.863V34.5426C115.863 30.978 118.694 28.79 123.058 28.79C127.563 28.79 129.799 30.7822 129.799 34.8514V43.4966H124.814V41.7567H124.56C123.936 42.6549 122.661 43.7772 119.95 43.7772C117.448 43.7772 115.522 42.4592 115.522 39.8211ZM121.697 39.9602C123.765 39.9602 124.645 39.4274 124.729 38.079L121.188 38.6684C120.622 38.7532 120.396 38.9489 120.396 39.3426C120.396 39.8472 120.707 39.9581 121.697 39.9581V39.9602Z" fill="#121212"/>
<path d="M131.383 47.9879V29.0664H136.342V31.0238H136.511C137.303 29.6775 138.833 28.7793 141.015 28.7793C145.15 28.7793 146.942 31.7263 146.942 36.2718C146.942 40.8173 145.214 43.7664 141.079 43.7664C138.982 43.7664 137.566 42.8965 136.943 41.5785H136.686V47.977L131.383 47.9879ZM139.145 39.2035C141.384 39.2035 141.629 38.2183 141.629 36.2826C141.629 34.347 141.346 33.3922 139.136 33.3922C137.465 33.3922 136.671 33.7859 136.671 35.7846V36.8242C136.68 38.7816 137.474 39.2035 139.145 39.2035Z" fill="#121212"/>
<path d="M148.065 36.4239C148.065 31.6522 150.785 28.79 155.63 28.79C160.334 28.79 162.685 31.5108 162.685 35.3582C162.67 36.0734 162.596 36.7862 162.465 37.4896H153.026C153.112 39.0337 153.593 39.3991 155.548 39.3991C156.822 39.3991 157.247 39.1468 157.247 38.5009V38.4357H162.516V38.7728C162.516 41.6915 159.796 43.775 155.463 43.775C150.73 43.7772 148.065 41.0281 148.065 36.4239ZM153.024 34.6274H157.614C157.586 33.7009 157.103 32.9441 155.347 32.9441C153.7 32.9441 153.11 33.4486 153.024 34.6274Z" fill="#121212"/>
<path d="M163.88 43.4966V29.0706H168.836V31.2585H169.091C169.914 29.8557 171.301 28.79 173.229 28.79C176.032 28.79 177.024 30.5865 177.024 33.4204V36.0302H171.705V34.5992C171.705 33.5335 171.506 33.2246 170.516 33.2246C169.638 33.2246 169.183 33.3355 169.183 34.3751V43.4966H163.88Z" fill="#121212"/>
<path d="M186.053 38.8952L184.128 39.1127L184.043 38.7756L186.053 37.5664L186.578 37.1314H179.736L177.216 39.4846V43.4973H191.295V38.8952H186.053ZM184.269 33.3928L184.354 33.7299L182.172 34.8521L181.942 35.0696H189.001L190.869 33.4798V29.0713H177.639V33.6733H182.172L184.269 33.3928Z" fill="#121212"/>
<path d="M51.6338 18.8613V51.5498H83.6426V18.8613H51.6338ZM58.623 45.7951V39.7054L66.4287 45.7951H58.623ZM69.3964 45.6233L58.623 37.2174V35.0229L71.4686 45.0491C70.8008 45.3139 70.106 45.5065 69.3964 45.6233ZM74.7634 42.8242C74.3327 43.2701 73.8601 43.6743 73.352 44.0313L58.623 32.537V24.6161H66.8918C70.483 24.6161 73.1713 25.6716 74.9566 27.7827C76.717 29.8205 77.6689 32.4234 77.6346 35.1055C77.6346 38.2693 76.6776 40.8422 74.7634 42.8242Z" fill="#121212"/>
</svg>
