<svg width="21" height="21" viewBox="0 0 21 21" fill="none" xmlns="http://www.w3.org/2000/svg">
<path d="M6.50161 5.97508C6.50161 5.21554 6.72684 4.47306 7.14882 3.84152C7.5708 3.20998 8.17057 2.71776 8.8723 2.42709C9.57403 2.13643 10.3462 2.06038 11.0911 2.20856C11.8361 2.35674 12.5204 2.72249 13.0574 3.25957C13.5945 3.79665 13.9603 4.48093 14.1085 5.22588C14.2566 5.97082 14.1806 6.74298 13.8899 7.44471C13.5993 8.14644 13.107 8.74621 12.4755 9.16819C11.844 9.59017 11.1015 9.8154 10.3419 9.8154C9.32341 9.8154 8.34661 9.4108 7.62641 8.6906C6.90621 7.9704 6.50161 6.9936 6.50161 5.97508ZM16.7425 18.7761H3.9414C3.43214 18.7761 2.94374 18.5738 2.58364 18.2137C2.22354 17.8536 2.02124 17.3652 2.02124 16.856C2.02124 15.3282 2.62815 13.863 3.70844 12.7827C4.78874 11.7024 6.25394 11.0955 7.78172 11.0955H12.9021C14.4299 11.0955 15.8951 11.7024 16.9754 12.7827C18.0557 13.863 18.6626 15.3282 18.6626 16.856C18.6626 17.3652 18.4603 17.8536 18.1002 18.2137C17.7401 18.5738 17.2517 18.7761 16.7425 18.7761Z" fill="#BCBCBC"/>
</svg>
