<svg width="21" height="21" viewBox="0 0 21 21" fill="none" xmlns="http://www.w3.org/2000/svg">
<path d="M10.3265 2.20898C5.7312 2.20898 2.00586 5.93424 2.00586 10.5297C2.00586 15.1251 5.7312 18.8504 10.3265 18.8504C14.9219 18.8504 18.6472 15.125 18.6472 10.5297C18.6472 5.93432 14.9219 2.20898 10.3265 2.20898ZM13.6548 11.3617H10.3265C9.86666 11.3617 9.49448 10.9896 9.49448 10.5297V5.53726C9.49448 5.07737 9.86666 4.70519 10.3265 4.70519C10.7864 4.70519 11.1586 5.07737 11.1586 5.53726V9.6976H13.6548C14.1147 9.6976 14.4869 10.0698 14.4869 10.5297C14.4869 10.9896 14.1147 11.3617 13.6548 11.3617Z" fill="#BCBCBC"/>
</svg>
